<svg xmlns="http://www.w3.org/2000/svg" viewBox="0 0 100 100">
  <defs>
    <linearGradient id="adminGrad" x1="0%" y1="0%" x2="100%" y2="100%">
      <stop offset="0%" style="stop-color:#0078d4;stop-opacity:1" />
      <stop offset="100%" style="stop-color:#005a9e;stop-opacity:1" />
    </linearGradient>
  </defs>

  <!-- Background Circle -->
  <circle cx="50" cy="50" r="48" fill="url(#adminGrad)"/>

  <!-- D Letter -->
  <path d="M 25 25 L 25 75 L 45 75 C 55 75 65 70 65 50 C 65 30 55 25 45 25 Z M 35 35 L 45 35 C 50 35 55 38 55 50 C 55 62 50 65 45 65 L 35 65 Z" fill="white"/>

  <!-- A Letter -->
  <path d="M 62 75 L 68 60 L 82 60 L 88 75 L 78 75 L 77 70 L 73 70 L 72 75 Z M 75 50 L 70 62 L 80 62 Z" fill="white"/>
</svg>
