<svg xmlns="http://www.w3.org/2000/svg" viewBox="0 0 100 100">
  <defs>
    <linearGradient id="shopGrad" x1="0%" y1="0%" x2="100%" y2="100%">
      <stop offset="0%" style="stop-color:#0078d4;stop-opacity:1" />
      <stop offset="100%" style="stop-color:#005a9e;stop-opacity:1" />
    </linearGradient>
  </defs>

  <!-- Background Circle -->
  <circle cx="50" cy="50" r="48" fill="url(#shopGrad)"/>

  <!-- D Letter -->
  <path d="M 20 25 L 20 75 L 40 75 C 50 75 60 70 60 50 C 60 30 50 25 40 25 Z M 30 35 L 40 35 C 45 35 50 38 50 50 C 50 62 45 65 40 65 L 30 65 Z" fill="white"/>

  <!-- S Letter -->
  <path d="M 68 35 C 68 30 72 27 76 27 C 80 27 84 30 84 35 L 76 35 C 76 33 76 33 76 33 C 76 33 76 33 76 35 L 84 35 C 84 40 88 45 88 50 C 88 55 84 60 76 60 C 68 60 64 55 64 50 L 72 50 C 72 52 74 54 76 54 C 78 54 80 52 80 50 C 80 48 78 46 76 46 L 68 46 C 68 41 68 38 68 35 Z" fill="white"/>
</svg>
