<svg xmlns="http://www.w3.org/2000/svg" viewBox="0 0 100 100">
  <!-- D Letter -->
  <path d="M 20 25 L 20 75 L 40 75 C 50 75 60 70 60 50 C 60 30 50 25 40 25 Z M 30 35 L 40 35 C 45 35 50 38 50 50 C 50 62 45 65 40 65 L 30 65 Z" fill="#000"/>

  <!-- S Letter -->
  <path d="M 68 35 C 68 30 72 27 76 27 C 80 27 84 30 84 35 L 76 35 C 76 33 76 33 76 33 C 76 33 76 33 76 35 L 84 35 C 84 40 88 45 88 50 C 88 55 84 60 76 60 C 68 60 64 55 64 50 L 72 50 C 72 52 74 54 76 54 C 78 54 80 52 80 50 C 80 48 78 46 76 46 L 68 46 C 68 41 68 38 68 35 Z" fill="#000"/>
</svg>
